HIERARCHY
ROOT Hips
{
  OFFSET 0 0 0
  CHANNELS 6 Xposition Yposition Zposition Zrotation Yrotation Xrotation
  JOINT LeftThigh
  {
    OFFSET 8.409438 0 -5.917753
    CHANNELS 3 Zrotation Yrotation Xrotation
    JOINT LeftLeg
    {
      OFFSET 0 0 -42.358652
      CHANNELS 3 Zrotation Yrotation Xrotation
      JOINT LeftFoot
      {
        OFFSET 0 0 -39.357303
        CHANNELS 3 Zrotation Yrotation Xrotation
      }
    }
  }
  JOINT RightThigh
  {
    OFFSET -8.409438 0 -5.917753
    CHANNELS 3 Zrotation Yrotation Xrotation
    JOINT RightLeg
    {
      OFFSET 0 0 -42.358652
      CHANNELS 3 Zrotation Yrotation Xrotation
      JOINT RightFoot
      {
        OFFSET 0 0 -39.357303
        CHANNELS 3 Zrotation Yrotation Xrotation
      }
    }
  }
  JOINT SpineLow
  {
    OFFSET 0 0 4.719101
    CHANNELS 3 Zrotation Yrotation Xrotation
    JOINT SpineMid
    {
      OFFSET 0 0 12.899191
      CHANNELS 3 Zrotation Yrotation Xrotation
      JOINT Chest
      {
        OFFSET 0 0 12.899191
        CHANNELS 3 Zrotation Yrotation Xrotation
        JOINT LeftShoulder
        {
          OFFSET 7.550562 1.41573 9.438202
          CHANNELS 3 Zrotation Yrotation Xrotation
          JOINT LeftArm
          {
            OFFSET 9.155056 0 4.247191
            CHANNELS 3 Zrotation Yrotation Xrotation
            JOINT LeftForearm
            {
              OFFSET 0 0 25.771955
              CHANNELS 3 Zrotation Yrotation Xrotation
              JOINT LeftHand
              {
                OFFSET 0 0 25.197169
                CHANNELS 3 Zrotation Yrotation Xrotation
              }
            }
          }
        }
        JOINT RightShoulder
        {
          OFFSET -7.550562 1.41573 9.438202
          CHANNELS 3 Zrotation Yrotation Xrotation
          JOINT RightArm
          {
            OFFSET -9.155056 0 4.247191
            CHANNELS 3 Zrotation Yrotation Xrotation
            JOINT RightForearm
            {
              OFFSET 0 0 -25.771955
              CHANNELS 3 Zrotation Yrotation Xrotation
              JOINT RightHand
              {
                OFFSET 0 0 -25.197169
                CHANNELS 3 Zrotation Yrotation Xrotation
              }
            }
          }
        }
        JOINT Neck
        {
          OFFSET 0 0 15.101124
          CHANNELS 3 Zrotation Yrotation Xrotation
          JOINT Head
          {
            OFFSET 0 0 11.325843
            CHANNELS 3 Zrotation Yrotation Xrotation
            End Site
            {
              OFFSET 0 0 14.157303
            }
          }
        }
      }
    }
  }
}
MOTION
Frames: 13
Frame Time: 0.0
0.0  101.685394  0.0  12.633111  56.568645  -84.760798  -9.806496  -11.305247  -7.968564  -23.552632  14.730904  18.127308  5.523588  2.839709  5.08546  -31.956156  20.596664  -2.195544  -15.681853  11.491649  22.997991  -2.973462  3.81541  -4.295648  2.46608  1.604777  2.858767  6.927873  4.082733  7.977957  6.927873  4.082733  7.977957  6.012387  19.905567  10.863672  145.451476  24.84064  173.772515  -6.265216  4.413125  123.733359  92.227879  -0.659426  -28.253368  28.352936  -0.742218  6.902731  121.55494  37.633483  102.081675  -79.081712  43.038837  -99.073935  92.035987  32.175824  19.679658  -25.494585  -2.227954  -5.260048  -19.13936  -1.45447  -4.04598  
0.0  101.685394  0.0  12.522466  56.18998  -84.937628  -9.422816  -11.314794  -7.90611  -23.787837  14.80695  18.370795  5.580629  2.958616  5.068078  -32.881315  20.831068  -2.499069  -14.677795  11.16026  23.07428  -2.899178  3.929003  -4.336911  2.473209  1.642172  2.890004  6.954066  4.180419  8.06806  6.954066  4.180419  8.068059  5.478253  19.82297  10.925751  145.152885  25.445514  173.761984  -6.27096  3.390077  123.617157  91.915551  0.188859  -27.676855  27.745198  -0.675728  6.833519  121.274546  37.547559  101.920879  -78.855634  42.873001  -98.29217  92.441426  32.188861  19.575713  -25.743506  -2.247653  -5.166077  -19.325763  -1.47115  -3.977264  
0.0  101.685394  0.0  12.405148  55.733591  -85.209975  -9.088284  -11.247328  -7.77292  -24.184881  14.87993  18.521152  5.767198  3.131578  5.096658  -33.822011  21.148812  -2.975836  -13.700501  10.880417  23.355172  -2.684143  4.025931  -4.386175  2.474018  1.65943  2.904481  6.959418  4.225793  8.109675  6.959418  4.225793  8.109674  5.143  19.82897  11.093012  144.802814  26.427369  174.008933  -6.205924  2.464948  123.163346  91.669355  1.410987  -27.094582  27.63791  -0.847469  7.087627  120.461802  35.628342  98.736184  -80.108982  45.553902  -96.608236  92.746558  32.198562  19.434057  -26.276389  -2.073744  -5.001491  -19.723653  -1.34311  -3.848454  
0.0  101.685394  0.0  12.02761  55.043484  -85.778039  -8.624677  -11.336341  -7.54343  -24.269216  15.006806  18.859587  5.930724  3.266493  5.106181  -34.005096  21.290685  -3.263678  -13.102462  10.730885  23.710506  -2.505295  4.119796  -4.386596  2.480373  1.647416  2.908048  6.975407  4.191883  8.118411  6.975408  4.191883  8.118412  4.845752  19.956843  11.310129  144.662275  27.175485  174.025177  -6.08081  1.138193  123.046699  91.501597  2.864533  -26.641658  27.143273  -0.776379  7.331792  120.332678  36.067033  98.590228  -79.928219  44.882627  -96.10861  92.986762  32.194631  19.306498  -26.320047  -1.930432  -4.802962  -19.754763  -1.243599  -3.693276  
0.0  101.685394  0.0  11.538984  54.289435  -86.370768  -8.312906  -11.542033  -7.441777  -24.148843  15.250371  19.281711  6.049141  3.387588  5.068905  -34.071448  21.34678  -3.617208  -12.5493  10.596503  24.139361  -2.377876  4.176342  -4.38213  2.452273  1.629517  2.893825  6.89544  4.148115  8.075801  6.89544  4.148115  8.075802  5.036289  20.000404  11.460378  144.246377  27.825387  174.060948  -5.882563  -0.238748  122.904907  91.427433  4.392168  -26.371007  26.89692  -0.736504  7.604929  120.178004  36.715035  98.367365  -79.684446  44.230341  -95.700693  92.913229  32.303445  19.092277  -26.243898  -1.739042  -4.597148  -19.695796  -1.109173  -3.530111  
0.0  101.685394  0.0  10.868221  53.367667  -87.157604  -7.956273  -11.89561  -7.257668  -23.686536  15.464778  19.882538  6.107495  3.530201  5.005337  -33.707461  21.315076  -3.760547  -12.280352  10.530776  24.504688  -2.103857  4.225043  -4.35071  2.428985  1.588905  2.885058  6.826002  4.041249  8.045847  6.826002  4.041249  8.045848  4.906152  20.169139  11.641605  144.328292  28.585153  174.435737  -5.616629  -1.511206  122.765609  91.29504  5.904568  -26.211094  26.421949  -0.573711  7.830186  120.246744  37.47217  97.888505  -79.552568  43.635173  -95.577644  92.701744  32.407211  18.779344  -25.994982  -1.595614  -4.447603  -19.507799  -1.009574  -3.410777  
0.0  101.685394  0.0  10.136953  52.35294  -88.015183  -7.85708  -12.094605  -7.191177  -22.939965  15.57689  20.740269  6.186975  3.684506  4.951966  -33.000942  21.219442  -3.721039  -12.053277  10.460491  24.831733  -1.785638  4.278598  -4.325787  2.371144  1.546926  2.872667  6.661849  3.93524  8.003994  6.661849  3.93524  8.003994  4.935115  20.330992  11.821784  144.55285  29.282495  175.034941  -5.335419  -2.649753  122.668831  91.19509  7.454885  -26.119743  26.067685  -0.409715  8.013355  120.36739  38.302214  97.186873  -79.566632  43.049557  -95.682623  92.564988  32.463696  18.383385  -25.626642  -1.457875  -4.26823  -19.230227  -0.916219  -3.269037  
0.0  101.685394  0.0  9.252305  51.09035  -89.052679  -7.267197  -12.500812  -6.830737  -22.3893  15.597588  21.367963  6.179088  3.855738  4.889997  -32.04512  21.051994  -3.567034  -11.91538  10.38947  25.096556  -1.591421  4.321218  -4.301019  2.317551  1.483668  2.85918  6.506579  3.770745  7.957288  6.506579  3.770745  7.957288  4.944695  20.565763  12.027471  145.000822  29.9164  175.892284  -5.06426  -3.78535  122.579607  91.617897  9.06758  -26.127063  25.677462  -0.189443  8.288164  120.597999  39.250913  96.291923  -79.734247  42.531244  -96.028866  92.465668  32.449256  17.914339  -25.123553  -1.359852  -4.101168  -18.851902  -0.85289  -3.138  
0.0  101.685394  0.0  8.333033  49.558583  -90.084029  -6.430006  -12.904651  -6.354327  -21.930478  15.506805  21.869821  6.20612  4.007585  4.826187  -30.802468  20.82284  -3.346934  -11.509815  10.204497  25.375559  -1.438608  4.365173  -4.308269  2.239483  1.439266  2.835739  6.286455  3.661481  7.884388  6.286456  3.661481  7.884388  5.16433  20.730146  12.205514  145.648559  30.524355  177.03609  -4.787944  -5.04828  122.462152  92.00878  11.085896  -26.159777  25.449863  -0.020959  8.536702  120.910279  40.280636  95.193968  -79.938074  42.088215  -96.350087  92.434052  32.513924  17.481818  -24.399145  -1.314116  -3.882308  -18.307772  -0.832066  -2.969748  
0.0  101.685394  0.0  7.45123  47.883497  -91.225379  -5.484131  -13.196643  -5.59251  -21.694062  15.243915  22.160824  6.359976  4.138825  4.784899  -29.571988  20.663949  -3.016289  -11.307092  10.036134  25.511666  -1.306367  4.419338  -4.313143  2.182883  1.377417  2.839973  6.124281  3.499301  7.886727  6.124282  3.499301  7.886727  5.120127  20.996038  12.370955  146.461552  31.11131  178.42806  -4.548005  -6.589418  122.325567  92.669663  13.378195  -26.312212  24.995541  0.219903  8.840193  121.206048  41.390324  93.885241  -80.161726  41.698109  -96.584177  92.518101  32.569514  17.026272  -23.70425  -1.273806  -3.704753  -17.785942  -0.813025  -2.83297  
0.0  101.685394  0.0  6.498646  45.873537  -92.372691  -4.101758  -13.535762  -4.603273  -20.914479  14.78784  22.821742  5.941813  4.037994  4.28181  -28.100309  20.380138  -2.612998  -11.001742  9.849287  25.553247  -1.000175  4.437924  -4.327631  2.137138  1.327357  2.844852  5.993291  3.367888  7.892816  5.993291  3.367888  7.892816  5.015236  21.203985  12.392693  147.457622  31.680471  -179.943051  -4.382585  -8.396155  122.085263  93.482491  15.882606  -26.535429  24.603794  0.360593  9.0657  121.431192  42.550353  92.391666  -80.348014  41.330798  -96.736101  92.683891  32.790317  16.855254  -22.84416  -1.316836  -3.519861  -17.140614  -0.857411  -2.693519  
0.0  101.685394  0.0  5.641459  43.515118  -93.457811  -2.537619  -13.858303  -3.514745  -20.774128  14.301222  22.705482  6.16294  4.1023  4.281649  -26.615387  20.076914  -2.25394  -10.648798  9.723064  25.468264  -0.707155  4.450744  -4.31103  2.121071  1.262093  2.841088  5.941058  3.192245  7.87537  5.941059  3.192245  7.87537  4.785041  21.540221  12.488611  148.623609  32.257588  -178.087978  -4.286257  -10.378839  121.824426  94.48216  18.4898  -26.837386  24.13113  0.511109  9.443187  121.505058  43.722963  90.624288  -80.577563  40.915751  -96.794398  92.896358  32.884773  16.330958  -21.949176  -1.281149  -3.344426  -16.468783  -0.841981  -2.558186  
0.0  101.685394  0.0  4.920962  40.911269  -94.470964  -0.904732  -14.16885  -2.330344  -20.468947  13.767225  22.567891  6.325712  4.175023  4.27843  -25.045125  19.75672  -1.87685  -10.114708  9.616135  25.325276  -0.431788  4.436919  -4.285003  2.109593  1.218741  2.848512  5.904629  3.074763  7.890934  5.904629  3.074763  7.890934  4.46942  21.849134  12.544769  149.897695  32.86372  -176.019734  -4.240397  -12.457619  121.584325  95.740362  21.151916  -27.300924  23.658127  0.560585  9.710412  121.314608  44.848103  88.422666  -80.79929  40.480985  -96.79978  93.07504  32.966296  15.86049  -20.940112  -1.300234  -3.180408  -15.711672  -0.86737  -2.433183  
